<?xml version="1.0" encoding="iso-8859-1"?>
<!-- Generator: Adobe Illustrator 19.0.0, SVG Export Plug-In . SVG Version: 6.00 Build 0)  -->
<svg xmlns="http://www.w3.org/2000/svg" xmlns:xlink="http://www.w3.org/1999/xlink" version="1.1" id="Capa_1" x="0px" y="0px" viewBox="0 0 512 512" style="enable-background:new 0 0 512 512;" xml:space="preserve" width="512px" height="512px">
<g>
	<g>
		<path d="M256,0C114.844,0,0,114.844,0,256s114.844,256,256,256s256-114.844,256-256S397.156,0,256,0z M309.333,170.667    c17.646,0,32,14.354,32,32c0,17.646-14.354,32-32,32c-17.646,0-32-14.354-32-32C277.333,185.021,291.688,170.667,309.333,170.667z     M309.333,277.333c17.646,0,32,14.354,32,32c0,17.646-14.354,32-32,32c-17.646,0-32-14.354-32-32    C277.333,291.688,291.688,277.333,309.333,277.333z M85.333,256c0,5.896-4.771,10.667-10.667,10.667    C68.771,266.667,64,261.896,64,256c0-105.865,86.135-192,192-192c5.896,0,10.667,4.771,10.667,10.667    c0,5.896-4.771,10.667-10.667,10.667C161.896,85.333,85.333,161.896,85.333,256z M202.667,341.333c-17.646,0-32-14.354-32-32    c0-17.646,14.354-32,32-32c17.646,0,32,14.354,32,32C234.667,326.979,220.313,341.333,202.667,341.333z M202.667,234.667    c-17.646,0-32-14.354-32-32c0-17.646,14.354-32,32-32c17.646,0,32,14.354,32,32C234.667,220.313,220.313,234.667,202.667,234.667z     M256,448c-5.896,0-10.667-4.771-10.667-10.667c0-5.896,4.771-10.667,10.667-10.667c94.104,0,170.667-76.563,170.667-170.667    c0-5.896,4.771-10.667,10.667-10.667c5.896,0,10.667,4.771,10.667,10.667C448,361.865,361.865,448,256,448z" fill="#FFFFFF"/>
	</g>
</g>
<g>
</g>
<g>
</g>
<g>
</g>
<g>
</g>
<g>
</g>
<g>
</g>
<g>
</g>
<g>
</g>
<g>
</g>
<g>
</g>
<g>
</g>
<g>
</g>
<g>
</g>
<g>
</g>
<g>
</g>
</svg>
