<?xml version="1.0" encoding="iso-8859-1"?>
<!-- Generator: Adobe Illustrator 16.0.0, SVG Export Plug-In . SVG Version: 6.00 Build 0)  -->
<!DOCTYPE svg PUBLIC "-//W3C//DTD SVG 1.1//EN" "http://www.w3.org/Graphics/SVG/1.1/DTD/svg11.dtd">
<svg xmlns="http://www.w3.org/2000/svg" xmlns:xlink="http://www.w3.org/1999/xlink" version="1.1" id="Capa_1" x="0px" y="0px" width="512px" height="512px" viewBox="0 0 186.97 186.971" style="enable-background:new 0 0 186.97 186.971;" xml:space="preserve">
<g>
	<path d="M186.392,136.812c-7.61-27.158-28.166-53.395-42.937-77.098c-10.412-16.709-21.759-35.538-41.242-42.329   c0.062-0.632,0.076-1.288,0.072-1.977c-0.014-2.295-0.027-4.589-0.041-6.882c-0.024-3.865-5.818-3.835-5.975,0   c-0.062,1.516-0.297,3.008-0.332,4.524c-0.018,0.743,0.036,1.489,0.1,2.234c-30.75,14.984-27.912,65.958-32.266,97.364   c-1.21-1.501-2.594-2.903-4.226-4.139c-1.186-1.012-2.488-1.945-3.92-2.779c-1.27-0.739-2.776,0.149-2.948,1.535   c-0.162,0.245-0.295,0.514-0.352,0.833c-0.629,3.509-1.381,6.42-2.97,9.118c-2.178-5.317-5.594-9.666-9.852-13.033   c-5.652-6.744-13.326-11.416-22.285-11.12c-2.126,0.07-2.94,2.429-1.648,3.963c-0.673,1.238-0.321,3.174,0.894,4.098   c6.829,5.19,10.309,12.374,10.412,20.762c-0.207-0.095-0.395-0.211-0.59-0.317c-2.133-2.132-3.258-5.039-4.27-8.407   c-0.337-1.123-2.075-1.109-2.364-0.114c-0.137-0.04-0.274-0.071-0.417-0.091c-0.196-0.358-0.561-0.612-1.084-0.457   c-8.607,2.546-11.328,9.147-10.539,16.371c-1.191,6.499,0.705,12.86,4.628,18.131c-0.156,0.022-0.305,0.008-0.462,0.039   c-1.068,0.209-2.08,0.557-3.042,1.014c-3.131,1.062-6.009,2.844-7.648,5.81c-1.755,3.178-1.419,7.319,1.233,9.898   c1.607,1.562,3.695,2.283,5.856,2.439c0.059,0.012,0.113,0.036,0.173,0.048c1.551,0.272,3.038,0.034,4.429-0.517   c0.088-0.023,0.179-0.039,0.267-0.063c2.041-0.596,3.93-1.65,5.655-2.886c0.132,1.737,0.435,3.47,1.052,5.085   c0.006,0.041-0.001,0.08,0.005,0.12c0.554,3.852,3.059,7.551,6.709,9.027c2.993,1.211,5.916,0.287,8.097-1.739   c0.082-0.051,0.163-0.102,0.242-0.155c-0.147,3.39,1.017,6.578,4.503,9.095c7.75,5.594,18.871-7.784,19.233-15.841   c7.314,4.478,16.154,7.343,20.357,0.915c0.56-0.856,0.928-1.688,1.207-2.505c19.99,8.578,46.304,0.764,65.742-5.318   C156.323,158.189,191.913,156.515,186.392,136.812z M26.492,103.545c5.011,1.827,9.452,4.724,12.87,8.621   c2.78,4.816,4.74,10.208,5.963,15.159c0.565,2.288,4.504,1.848,4.189-0.567c-0.037-0.283-0.102-0.571-0.146-0.856   c0.039-0.045,0.066-0.093,0.105-0.139c0.295-0.133,0.579-0.3,0.821-0.544c3.536-3.558,5.383-7.326,6.567-11.787   c2.732,2.174,4.53,4.755,5.613,7.536c0.011,0.071,0.048,0.126,0.067,0.193c1.497,3.988,1.502,8.388,0.317,12.682   c-0.515-1.899-1.479-3.681-2.689-5.394c-0.004-0.008-0.007-0.016-0.01-0.023c-0.012-0.027-0.04-0.039-0.054-0.065   c-0.789-1.105-1.66-2.188-2.645-3.235c-0.942-1.002-3.022-0.888-3.626,0.467c-0.293,0.657-1.616,2.964-3.263,5.364   c-2.144,1.575-4.235,3.226-6.352,4.871c-1.251-1.061-2.603-2.098-3.696-3.291c-1.627-2.624-3.321-5.212-4.799-7.928   c-0.622-1.143-1.772-1.124-2.573-0.538c0.311-5.658-1.24-10.801-3.736-15.602c-0.027-0.057-0.059-0.112-0.086-0.169   c-0.344-0.655-0.695-1.306-1.073-1.947c-0.355-0.619-0.719-1.231-1.118-1.828C26.924,104.195,26.71,103.87,26.492,103.545z    M10.581,160.268c-0.318,0.037-0.638,0.045-0.957,0.052c-0.089,0.002-0.729-0.048-0.834-0.041   c-0.418-0.098-1.427-0.405-0.914-0.187c-0.226-0.096-0.439-0.219-0.651-0.341c-0.018-0.098-0.036-0.199-0.05-0.271   c-0.024-0.267-0.042-0.535-0.042-0.802c0-0.343-0.004-0.685,0.011-1.027c0.004-0.085,0.014-0.17,0.022-0.255   c0.001-0.006,0.002-0.014,0.003-0.021c1.597,0.154,3.083,0.754,4.391,1.653c0.186,0.286,0.365,0.58,0.542,0.874   C11.61,160.049,10.648,160.26,10.581,160.268z M17.003,157.307c-0.057,0.042-0.122,0.074-0.179,0.116   c-2.248-2.004-4.727-3.499-7.686-3.997c1.007-0.882,2.14-1.683,3.292-2.377c0.813-0.328,1.664-0.629,2.533-0.89   c1.556,1.57,3.328,2.976,5.237,4.229C19.044,155.29,18.002,156.562,17.003,157.307z M20.746,130.47   c-0.964-0.887-2.741-0.322-2.688,1.113c0.097,2.597,0.351,5.132,0.942,7.505c0.282,1.764,0.615,3.471,1.047,5.115   c-3.754-4.045-6.561-8.843-7.555-13.612c0.62-3.491,2.348-6.902,4.985-9.935c1.432,2.457,3.836,3.896,7.181,5.081   c1.227,1.156,2.72,2.191,4.618,3.097c1.105,0.526,2.647,0.241,3.258-0.883c0.292,2.42,0.402,4.854,0.506,7.288   c-0.264,1.119-0.518,2.24-0.77,3.361C28.21,136.213,24.283,133.724,20.746,130.47z M29.443,170.195   c-1.39-0.373-2.446-1.249-3.278-2.391c0.283-0.322,0.59-0.609,0.913-0.872c0.174-0.065,0.308-0.147,0.502-0.207   c1.858-0.563,3.879,0.11,5.704-0.146c0.16,0.069,0.321,0.135,0.481,0.207C33.045,169.089,31.842,170.841,29.443,170.195z    M35.207,159.981c-0.215,0.712-0.381,1.699-0.567,2.788c-2.441-2.062-7.513-1.229-10.019,0.104   c-0.155,0.083-0.304,0.184-0.457,0.274c-0.119-0.466-0.251-0.929-0.346-1.398c0.265-1.584,0.72-3.152,1.301-4.654   c3.135,1.391,6.537,2.341,10.094,2.751C35.209,159.891,35.209,159.937,35.207,159.981z M38.914,154.505   c-3.955-0.332-8.038-1.949-11.797-4.367c-1.223-2.529-1.912-5.276-2.36-8.079c2.553,1.684,5.282,3.007,8.509,3.757   c1.513,0.352,2.574-0.551,2.95-1.872c0.573-0.416,0.924-1.194,0.819-1.976c-0.063-0.468-0.075-0.937-0.122-1.403   c0.298-1.305,0.63-2.595,0.962-3.883c0.401,0.388,0.804,0.778,1.212,1.162c0.605,1.05,1.206,2.102,1.774,3.175   c0.409,0.772,1.394,1.127,2.214,0.901c0.152-0.042,0.287-0.103,0.437-0.147c0.64,0.106,1.327,0.006,1.852-0.285   c3.808-2.11,7.194-4.82,10.83-7.177c0.941,2.363,1.557,4.651,1.78,7.457c0.039,0.498,0.186,0.921,0.393,1.289   c-2.635,3.72-6.032,6.967-9.955,9.153c-0.894,0.498-1.821,0.881-2.761,1.21c0-0.04,0.003-0.078,0-0.119   c-0.056-0.718-1.204-0.987-1.34-0.181c-0.044,0.262-0.136,0.516-0.215,0.771C42.405,154.315,40.669,154.521,38.914,154.505z    M41.259,176.508c-0.207-0.847-0.169-1.812,0.028-2.816c0.041-0.017,0.079-0.017,0.12-0.032c1.059,0.005,2.118,0.036,3.177,0.105   c1.395,0.09,2.711,0.418,4.023,0.771C46.642,176.353,44.292,177.335,41.259,176.508z M51.332,169.938   c-2.762-0.832-5.878-0.765-8.853-0.306c0.11-0.337,0.218-0.667,0.296-0.952c0.342-1.248,0.687-2.483,1.036-3.719   c0.279-0.88,0.545-1.762,0.781-2.651c0.281-0.942,0.56-1.886,0.866-2.828c0.283-0.047,0.565-0.087,0.849-0.147   c0.507-0.108,0.994-0.256,1.475-0.414c0.051,0.437,0.204,0.887,0.587,1.317c1.227,1.383,3.229,3.187,5.615,5.002   C53.402,165.919,52.47,167.794,51.332,169.938z M65.306,163.976c0.075,0.407,0.225,0.771,0.347,1.151   c-1.548-0.657-3-1.394-4.083-1.914c-3.309-1.595-6.725-3.564-9.633-5.857c1.783-0.834,3.457-1.83,4.994-3.002   c0.091-0.066,0.187-0.129,0.277-0.198c0.156-0.121,0.302-0.252,0.455-0.376c3.439,0.41,6.833,1.853,9.856,3.441   C65.584,158.729,64.858,161.54,65.306,163.976z M72.892,166.297c-0.317,0.115-0.666,0.162-1.016,0.205   c-0.694-0.995-1.211-2.146-0.649-3.313c0.361-0.749,1.061-1.185,1.836-1.528C74.648,163.489,75.371,165.396,72.892,166.297z    M78.748,157.312c-0.048,0.004-0.081,0.029-0.128,0.035c-0.841-1.25-1.962-2.413-3.406-3.442c-2.645-1.883-8.256-4.146-13.01-4.626   c-0.015-0.004-0.029-0.007-0.045-0.01c0.226-0.288,0.424-0.597,0.639-0.894c4.083-5.522,6.345-12.344,6.417-19.07   c0.206-0.212,0.385-0.471,0.485-0.842c6.119-22.855,8.511-46.576,14.572-69.472c2.897-10.945,6.693-21.657,12.363-31.459   c-0.029,1.026-0.084,2.05-0.12,3.075c-9.622,22.178-11.347,46.668-16.85,70.07c-4.881,20.756-6.848,36.695,1.071,56.498   C80.073,157.223,79.408,157.261,78.748,157.312z M86.29,96.943c4.072-17.447,5.953-35.213,9.505-52.709   c-2.595,37.054-9.62,73.481-10.898,110.641C78.051,134.234,81.34,118.149,86.29,96.943z M92.621,156.469   c2.091-13.402,2.723-26.928,3.308-40.449c2.702-16.918,5.041-34.117,5.835-51.122c11.767,30.001,18.607,63.589,39.973,88.334   C125.506,155.32,108.947,155.667,92.621,156.469z M119.083,88.256c-6.977-14.993-16.068-33.775-17.379-51.606   c5.159,16.248,12.51,31.336,22.108,45.69c12.974,19.4,33.71,35.542,29.003,58.793c-1.137,2.32-2.324,4.618-3.214,7.032   C137.976,128.803,128.625,108.767,119.083,88.256z M177.529,142.271c-1.471,1.885-3.96,3.449-6.959,4.761   c-4.331,1.398-8.728,2.499-13.151,3.466c1.855-4.533,2.951-8.995,3.32-13.384c1.26-3.18,2.24-6.411,2.711-9.621   c0.943-6.438-6.172-14.05-10.924-19.306c-1.208-1.819-2.52-3.628-3.973-5.419c-18.481-22.765-32.749-45.465-44.038-72.205   c-0.459-1.44-0.909-2.883-1.304-4.323c9.076,6.992,26.672,31.015,28.473,33.446c9.697,13.101,18.538,26.765,26.742,40.84   c3.541,6.072,6.881,12.241,10.119,18.479C171.174,124.068,179.6,135.794,177.529,142.271z" fill="#FFFFFF"/>
	<path d="M65.464,26.412c-4.982,8.399-12.631,10.1-17.794,1.043c-4.855-8.517-1.484-16.537,7.12-20.19   c1.089-0.462,1.473-1.35,1.39-2.252c1.243-0.28,1.315-2.208,0.008-2.627c-21.34-6.835-38.071,24.434-24.504,40.669   c13.59,16.262,39.127,5.065,39.015-15.224C70.684,25.027,66.892,24.004,65.464,26.412z" fill="#FFFFFF"/>
</g>
<g>
</g>
<g>
</g>
<g>
</g>
<g>
</g>
<g>
</g>
<g>
</g>
<g>
</g>
<g>
</g>
<g>
</g>
<g>
</g>
<g>
</g>
<g>
</g>
<g>
</g>
<g>
</g>
<g>
</g>
</svg>
